<svg width="144" height="144" viewBox="0 0 144 144" fill="none" xmlns="http://www.w3.org/2000/svg">
<rect width="144" height="144" fill="#EE4122"/>
<rect width="144" height="144" fill="#EE4122"/>
<mask id="mask0_280_1539" style="mask-type:luminance" maskUnits="userSpaceOnUse" x="15" y="32" width="111" height="81">
<path d="M125.858 32.4844H15.625V112.109H125.858V32.4844Z" fill="white"/>
</mask>
<g mask="url(#mask0_280_1539)">
<path d="M95.099 39.6281C96.103 40.5724 97.133 41.489 98.1324 42.4386C98.7204 42.996 99.7984 44.3127 100.375 44.6864C101.03 45.1104 102.638 44.7142 103.381 44.5214C104.992 44.104 107.115 43.2442 108.459 42.2696C111.042 40.3968 113.149 37.8399 116.628 37.4952C120.106 37.1504 121.097 39.2438 121.984 42.2286C122.17 42.856 122.39 43.1848 122.081 43.8056C121.623 44.7274 119.99 46.2515 119.198 46.999C117.035 49.0382 114.487 50.8634 111.96 52.439C111.175 52.929 109.163 53.769 108.88 54.642C108.751 55.0422 108.88 55.9997 108.936 56.4646C109.711 62.9889 112.618 69.4538 112.894 75.9493C113.177 82.6173 108.383 85.988 103.468 89.378C97.2557 93.6653 90.6524 97.9573 84.1197 101.727C76.4228 106.168 65.515 111.816 56.5315 112.11C56.3466 112.117 55.8091 112.025 55.6242 111.959C54.8318 111.686 55.6282 111.361 55.8355 111.149C56.0798 110.898 56.9383 109.295 57.0083 108.955C57.0334 108.833 57.0334 108.709 57.0268 108.585C57.0122 108.529 56.8234 108.465 56.76 108.444C56.1498 108.234 53.6524 108.041 53.3908 107.783C53.276 107.67 53.3142 107.431 53.3631 107.288C53.5097 106.865 54.6138 106.064 54.9136 105.539C55.0695 105.265 55.1646 105.013 55.0986 104.688C54.9638 104.294 52.9656 104.077 52.5166 103.836C52.1784 103.655 52.403 103.169 52.5047 102.863C53.6246 99.4947 58.7318 94.834 61.4486 92.458C65.3196 89.0753 69.5643 85.7633 73.8738 82.9593C76.1798 81.4593 78.5756 80.0893 80.793 78.4547C81.143 78.1967 82.6964 77.0426 82.7664 76.728C82.9297 76.0006 82.029 76.2633 81.6026 76.3587C79.7642 76.7667 77.2812 77.7493 75.4534 78.398C58.1613 84.5287 42.4369 94.3967 27.5313 104.898L27.1126 105.041C27.0928 104.925 27.1272 104.835 27.1642 104.729C27.3676 104.135 27.9024 103.257 28.2234 102.684C31.5819 96.696 36.9308 91.244 42.0354 86.714C44.6358 84.4067 47.4741 82.4007 50.0257 80.046C49.9108 79.878 49.6572 79.9987 49.4855 80.0327C47.4741 80.4233 45.3887 81.112 43.3732 81.5807C34.8626 83.562 25.4234 85.0847 17.0316 81.808C16.7543 81.6993 15.8958 81.3733 15.7188 81.2053C15.5841 81.0773 15.6132 80.9693 15.7056 80.8227C23.486 79.3113 31.3706 78.1347 38.9476 75.768C46.9841 73.2588 55.6084 69.7391 63.1708 66.049C66.4659 64.4417 70.749 62.3286 73.6625 60.1639C74.0072 59.9077 74.8142 59.4124 74.4998 58.9422C74.2753 58.7692 73.1765 59.135 72.8622 59.2315C69.9117 60.1441 67.0193 61.7448 64.09 62.808C59.692 64.4047 54.8001 65.769 50.2264 66.7741C46.4994 67.5929 40.3396 68.9176 36.6865 67.964C36.5082 67.9178 36.2956 67.902 36.2097 67.7145C35.8333 66.8983 37.2491 65.3741 36.8846 64.4311C36.7195 64.266 34.8639 64.9184 34.477 64.9554C32.1432 65.1826 32.3994 64.2159 33.493 62.7169C33.8866 62.1767 34.366 61.688 34.8098 61.1901C34.8811 60.6869 34.4386 60.5905 34.0147 60.5919C32.9858 60.5945 31.9293 60.9418 30.9176 60.5258C30.0235 60.1586 30.2758 58.9818 30.5558 58.262C31.6453 55.4701 36.1767 52.1406 38.6755 50.5332C43.4432 47.4666 48.7578 45.1408 53.9574 42.9008C59.2918 40.6028 64.745 38.2136 70.152 36.115C74.1591 34.5592 80.5434 32.1027 84.795 32.5332C89.0464 32.9638 92.1457 36.8454 95.103 39.6255L95.099 39.6281ZM81.9857 36.1678C76.1441 37.1795 70.3871 38.8832 64.819 40.892C55.8487 44.1278 47.1809 48.3264 39.3979 53.8377L39.0624 54.1956C39.9341 53.8812 40.5998 53.2024 41.3644 52.7018C53.5744 44.7089 67.2742 40.7111 81.0981 36.5033C81.4058 36.4096 81.8204 36.4412 81.9857 36.1705V36.1678ZM118.296 40.0719C118.193 39.9134 116.502 39.6334 116.467 40.1842L117.166 40.9647L116.852 41.9116C116.967 42.02 117.732 41.3411 117.842 41.217C118.032 41.0016 118.473 40.344 118.296 40.0719ZM114.204 41.2579C113.993 40.9528 113.21 41.9592 113.158 42.2788C113.038 43.0329 113.62 43.1438 114.246 43.1029C114.41 43.0924 115.502 42.774 115.566 42.7054C115.61 42.6592 115.604 42.6301 115.598 42.572C114.754 42.5984 114.157 42.1414 114.206 41.2579H114.204ZM42.4963 58.0244C44.1564 57.2702 45.7215 56.3127 47.3698 55.5361C57.6568 50.6864 69.5524 48.8058 80.0482 44.2348C80.3281 44.112 81.9104 43.4674 81.917 43.2654C81.6884 43.0633 81.1998 43.2508 80.9145 43.3182C76.9418 44.244 72.7486 46.1894 68.9066 47.6211C64.5245 49.2535 60.1265 50.528 55.6889 51.9689C54.2784 52.4272 52.8058 53.0361 51.3913 53.3332C51.3306 53.3464 51.3266 53.4705 51.2342 53.5207C50.2792 54.0318 48.8054 54.4465 47.7462 54.9206C46.1124 55.6524 44.1987 56.5887 42.7961 57.6968C42.6958 57.776 42.4778 57.8883 42.4976 58.0244H42.4963ZM77.7594 52.41C77.7237 52.2845 77.6708 52.2885 77.5599 52.3043C77.3962 52.3281 77.0026 52.4852 76.8071 52.5474C72.5293 53.9011 67.8976 55.3195 63.7175 56.8951C63.6211 56.9321 63.526 56.833 63.5617 57.0325C64.0543 57.0021 65.0607 56.5319 65.4741 56.804C65.6616 56.9282 65.6999 57.2227 65.9376 57.2306C65.9535 56.8661 65.6788 56.5187 66.1437 56.347L77.758 52.41H77.7594ZM57.8826 58.8841C57.4388 58.9145 56.9792 59.0968 56.5487 59.2328C52.712 60.4412 48.7142 61.7236 44.9264 63.0628C44.7706 63.1183 44.5857 63.1698 44.443 63.2425C44.3387 63.2953 44.2436 63.2874 44.2806 63.4392C46.1877 63.2649 48.0842 62.635 49.8896 62.0168C52.3805 61.1637 54.9968 60.1296 57.4375 59.1311C57.5815 59.0717 57.8086 59.0281 57.8839 58.8841H57.8826ZM91.693 73.9389L82.7844 80.054C76.2814 85.104 69.8192 90.3553 64.0873 96.2907C63.6396 96.754 62.9396 97.404 62.5738 97.878C62.4774 98.0027 62.3559 98.1333 62.3744 98.306C64.2379 96.8267 65.836 95.0533 67.5555 93.418C71.9337 89.258 76.4082 85.168 81.3054 81.612C84.5277 79.272 88.0397 77.1946 91.0644 74.598C91.1517 74.5227 91.7724 74.0209 91.693 73.9403V73.9389ZM99.881 78.0333L65.0144 102.465L67.1488 101.133C75.559 95.572 83.7884 89.752 92.0284 83.9473C94.5744 82.154 96.9584 80.6287 99.3224 78.5627C99.3937 78.4993 100.006 78.1573 99.8824 78.0333H99.881ZM106.022 82.1933C105.971 82.1433 105.76 82.3213 105.699 82.3653C102.632 84.5693 99.703 86.9533 96.6004 89.1153C87.6804 95.3307 78.0644 100.884 68.4932 106.044C67.5384 106.559 66.5346 107.135 65.5678 107.609C65.4741 107.655 64.7477 107.815 64.9484 108.013C65.0184 108.082 66.0724 107.577 66.248 107.497C73.3614 104.264 80.2621 100.051 86.867 95.8907C92.0824 92.6047 97.4537 89.1693 102.318 85.3893C103.483 84.4847 104.838 83.4427 105.884 82.418C105.954 82.3493 106.052 82.3227 106.021 82.1933H106.022Z" fill="#F0EEE7"/>
<path d="M125.834 38.2123C125.977 38.7921 125.469 39.0166 125.063 39.323C124.836 39.4947 124.597 39.6729 124.382 39.8275C124.208 39.9517 122.637 40.7546 123.124 41.0875C123.9 41.1746 124.643 40.4522 125.44 40.7216L125.407 40.9184L122.798 43.1306L122.6 43.1636C122.53 42.3949 121.388 40.1022 121.708 39.4643C121.812 39.3454 121.994 39.286 122.139 39.2358C123.307 38.8303 124.651 38.6058 125.836 38.2109L125.834 38.2123Z" fill="#F0EEE7"/>
</g>
</svg>
