<?xml version="1.0" encoding="UTF-8"?>
<svg id="Layer_1" xmlns="http://www.w3.org/2000/svg" version="1.1" viewBox="0 0 144 144">
  <!-- Generator: Adobe Illustrator 29.6.1, SVG Export Plug-In . SVG Version: 2.1.1 Build 9)  -->
  <defs>
    <style>
      .st0 {
        fill: #3d8a3a;
      }
    </style>
  </defs>
  <path class="st0" d="M84.8,35.07c.6.46,1.41.61,2.19.72,1.76.23,3.56.24,5.34.03.39-.05.78-.13,1.19-.23.49-.11,1-.23,1.51-.27.22-.02.56.02.92.07.28.03.75.09.87.06.25-.08.52-.24.8-.49h0c1.36-1.23,2.37-4,2-5.48-.09-.37-.63-.89-1.05-1.01-1.92-.55-3.18.31-4.63,1.29-.48.32-.97.66-1.51.96-1.87,1.03-4.14,1.64-6.33,2.22-.7.19-1.36.36-1.99.55-.13.59.24,1.23.7,1.58Z"/>
  <path class="st0" d="M31.22,45.49c.09.06.24.07.4.09,1.55.12,3.1-.02,4.6-.43h.04c.28-.09.61-.18.94-.18.19,0,.39.03.58.11.43.17.7.53.94.88l.08.12c.41.59.83,1.21,1.4,1.58.52.34,1.3.49,1.79.09.3-.24.48-.67.63-1.05l1.43-3.49c.5-1.21.93-2.45,1.34-3.64.62-1.79,1.27-3.65,2.14-5.44.17-.34.32-.68.48-1.02.99-2.11,2.01-4.29,4.32-5.57.87-.48,1.86-.67,2.82-.86.44-.09.85-.17,1.25-.27.45-.12.89-.25,1.34-.37,1.29-.36,2.61-.74,3.97-.94,2.75-.42,5.52-.18,8.22.13-1.11-1.61-2.3-3.21-3.83-4.43-2.87-2.28-6.37-2.28-8.8-1.88-3.11.51-6.36,1.98-8.91,4.02-2.33,1.86-4.47,3.95-6.73,6.16-.93.91-1.89,1.85-2.89,2.79-.04.09-.08.19-.12.29-.12.32-.27.68-.56.91-1.33,1.04-3.1,2.74-3.95,4.92-.39,1-.88,1.94-1.37,2.85-.6,1.13-1.22,2.3-1.61,3.56-.13.42-.19.92.05,1.07Z"/>
  <path class="st0" d="M70.72,32.47c-.41-.28-1.68.06-2.22.21-.18.05-.33.09-.43.11-1.46.3-2.25.36-3.65-.26-2.83-1.26-4.91-1.41-8.05-1.65l-.24-.02c-1.62-.12-2.97.53-3.43,1.66l-.03.07c-.53,1.3-1.13,2.77.46,4.17.07-.01.19-.07.29-.12.35-.18.99-.51,1.62.28.17.22.81.38,1.34.35.14-.01.28-.01.41-.01.54,0,1.06.07,1.57.14.48.06.94.12,1.4.13.77.01,1.56-.2,2.34-.4l.35-.09c.34-.09.69-.19,1.04-.31h0c2.21-.76,4.68-1.99,6.78-3.36.38-.25.58-.48.56-.65-.01-.14-.07-.19-.11-.22Z"/>
  <path class="st0" d="M5.64,76.43c-1.02-.42-1.9-1.13-2.76-1.81-.38-.31-.78-.62-1.18-.9-.48-.34-.97-.67-1.45-1l-.09-.06c0,.05,0,.1-.01.16-.06.68-.13,1.38-.12,2.06,0,.23.21.54.39.82l.08.12c.3.46.59.94.88,1.41.73,1.2,1.49,2.44,2.42,3.47.19.22.38.46.56.69.75.98,1.45,1.91,3.25,1.76h.11s.1.04.1.04c.24.12.48.24.72.36.52.27,1.02.53,1.54.71.72.24,1.17-.21,1.72-1.07.06-.14-.08-.73-.35-1.15-1.5-2.3-3.08-4.46-5.81-5.6Z"/>
  <path class="st0" d="M92.4,53.36c-.22-.04-.43-.06-.62-.06-1.2,0-1.94.77-2.92,1.77-.23.24-.47.49-.73.73-.14.14-.29.28-.44.42-.32.3-.63.58-.86.9-.26.36-.34.83-.23,1.29.1.41.34.73.66.9,1.85.93,4.92.47,6.7-1,1.11-.92.9-2.1.56-3.33-.23-.82-1-1.42-2.11-1.63Z"/>
  <path class="st0" d="M95.86,89.07c.68-.51,1.38-1.04,2.14-1.48,2.31-1.36,5.13-2.75,8.49-2.84,1.1-.03,1.57-.55,1.58-1.75.01-2.31-.94-4.17-1.95-6.13l-.28-.55c-1.15-2.26-2.7-4.43-4.6-6.45l-.25-.26c-1.52-1.61-3.23-3.44-5.27-4.18-2.61-.95-5.25-1.94-7.85-2.95-1.83-.7-3.74-1.12-5.69-1.22-.41-.02-.81-.03-1.22-.03-.96,0-1.93.05-2.91.12-1.25.08-2.48.17-3.63.26-4.3.35-8.15.83-11.78,1.45-3.21.55-6.09,1.72-9.14,2.95l-.97.39c-4.05,1.63-6.91,3.21-9.26,5.15-2.68,2.2-4.26,4.27-3.9,7.77.19,1.83.84,2.79,2.02,3.03,1.64.33,2.97,1.12,4.37,1.97.96.58,1.96,1.18,3.11,1.65l.04.02c.46.25.92.5,1.38.74,1.1.6,2.25,1.22,3.39,1.78.26.13.58.18.92.24.47.08.95.16,1.35.44,3.69,2.53,7.16,4.61,10.63,6.35,3.71,1.86,7.14,1.32,10.3.46.79-.21,1.57-.44,2.36-.66,2.01-.57,4.09-1.17,6.17-1.57,3.15-.61,5.99-1.73,8.7-3.43.6-.38,1.19-.82,1.75-1.24Z"/>
  <path class="st0" d="M61.92,51.83c-.36-.03-1.29.68-1.33.97-.06,1.37.1,2.87.49,4.61.16.7.75.95,1.79,1.35.23.09.47.18.71.28l.06.03c.05.03.12.08.18.13,0,0,0,0,.01,0,.27-.16.54-.32.81-.48,1.05-.62,2.13-1.26,3.05-2.05.25-.21.39-1.26.17-1.62-1.17-1.87-3.17-2.95-5.94-3.22Z"/>
  <path class="st0" d="M47.41,96.98c1.37-.68,1.13-2.06.96-2.62-.22-.73-.74-1.38-1.28-2.08-.18-.22-.35-.45-.51-.67-.04,0-.09.02-.11.03-1,.49-2.06.83-3.09,1.15-1.91.61-3.71,1.18-5.16,2.62-.71.7-1.55,1.27-2.43,1.87-.54.37-1.09.74-1.67,1.18-.16.16-.32.31-.48.47-.35.34-.72.7-1.04,1.06-.56.63-.83,1.21-.78,1.74.05.51.39,1.02,1.03,1.5.68.52,1.23.36,2.24-.1,1.52-.7,3-1.54,4.43-2.36,2.37-1.35,4.82-2.75,7.53-3.55.02,0,.08-.05.12-.08.07-.06.15-.12.26-.17Z"/>
  <path class="st0" d="M29.01,62.18c.36.48.8.9,1.26,1.33.5.47,1.01.96,1.43,1.54.42.59.72,1.41,1.04,2.28l.06.16c.74,2.02,1.43,3.55,3.11,3.37.21-.02.42-.04.63-.06,1.64-.15,3.33-.3,4.53-1.46,1.8-1.73,3.12-3.25,4.15-4.76,0-.2-.33-.81-.53-1.18-.18-.33-.37-.68-.5-.99-.09-.23-.06-.48-.04-.68v-.07c.12-.98-.13-1.87-.82-2.99-.21-.35-.4-.68-.58-1-.5-.89-.93-1.66-1.78-2.37-1.03-.87-1.98-1.87-2.9-2.84-.44-.47-.88-.93-1.33-1.38-.17-.17-.36-.36-.56-.41-.06-.01-.12-.02-.18-.02-.34-.03-.69-.05-1.03-.05-2.26,0-4.49.66-6.39,1.89-.31.2-.61.43-.69.72-.03.11-.04.24-.04.39-.02.49-.04.96-.07,1.43-.06,1.02-.11,2.07-.05,3.09.1,1.68.54,3.05,1.29,4.06Z"/>
  <path class="st0" d="M15.94,65.16c-.28,1.36.53,2.75,1.38,4.06.24.37.48.75.72,1.12.48.74.95,1.49,1.44,2.22.37.56.85.99,1.36,1.45.24.22.48.43.71.67l2.51,2.51c.24.24.47.48.71.73.51.53,1.04,1.07,1.59,1.56.49.43.76.25,1.33-.18.39-.3.83-.64,1.4-.58,1.11.12,1.41-.77,1.63-1.7.15-.64-.26-1.71-1.24-1.94-1.61-.39-2.41-1.52-3.18-2.62-.19-.28-.4-.56-.6-.83-.22-.28-.44-.57-.66-.86-.41-.55-.83-1.11-1.29-1.61-.19-.21-.39-.42-.59-.63-.89-.94-1.82-1.92-2.35-3.3-.23-.6-1.08-1.21-1.76-1.25-.17-.01-.38-.02-.59-.02-.75,0-1.66.08-2,.31-.34.22-.47.66-.52.9Z"/>
  <path class="st0" d="M33.57,85.32l-.05-.26c-.1-.56-.49-.63-1.58-.58-.21.01-.42.02-.61.02-.32,0-.63,0-.95,0-.51,0-1.04.02-1.56-.02-.68-.05-1.37-.06-2.03-.08-1.36-.03-2.76-.06-4.19-.35h-.06c-2.08-.43-4.43-.91-5.63,1.4-.59,1.13-1.24,1.32-2.18,1.25-1.13-.08-1.34.33-1.39.79-.11.86.02,1.37,1.05,1.88.68.34,1.32.33,2.14.33.49,0,1.05,0,1.68.07.13,0,.26,0,.39-.02.15,0,.31-.02.47-.02.19,0,.39.01.59.06h.06c3.45.84,6.7,1.62,10.2.15,1.17-.49,2.11-1.03,3.05-1.76,1.02-.78.81-1.86.61-2.9Z"/>
  <path class="st0" d="M62.29,98.99c-.1-.12-.63-.12-.95-.12-.29,0-.59,0-.86-.04-.25-.04-.5-.06-.75-.06-1.35,0-2.53.56-3.52,1.13-.29.17-.58.33-.88.5-.96.54-1.96,1.11-2.89,1.72-.45.3-.91.59-1.36.88-1.64,1.05-3.34,2.14-4.84,3.4-.71.59-1.15,1.03-1.16,1.39-.02.4.46.95,1.41,1.89.72-.09,1.41-.31,2.14-.55,1.15-.38,2.34-.77,3.69-.59.28.04.87-.29,1.21-.68,2.02-2.3,4.65-3.29,7.63-4.25,1.27-.41,2.22-1.57,2.08-2.19-.2-.85-.42-1.82-.94-2.42Z"/>
  <path class="st0" d="M12.75,56.6v.31c-.04,1.1.34,2.01,1.27,3.04.31.35.51.28,1.04.05.38-.17.86-.38,1.39-.21.22.07.4.07.54-.02.24-.14.43-.49.55-1.01.14-.61.08-1.3.03-1.96-.06-.78-.12-1.51.12-2.11.64-1.56.25-2.95-.13-4.29-.05-.19-.11-.38-.16-.57-.08-.3-.12-.61-.17-.94-.18-1.26-.35-2.45-2.33-2.68-1.65.65-2.3,1.69-2.19,3.47.15,2.3.09,4.65.03,6.92Z"/>
  <path class="st0" d="M45.24,112.2c-.38,0-.88.16-1.62.44-1.35.51-2.18,1.51-3.06,2.57-.37.44-.75.9-1.17,1.32-.49.49-.76,1.09-.75,1.69,0,.55.25,1.09.68,1.5.83.79,1.26.91,3.15-.76.36-.36.74-.74,1.11-1.12.91-.91,1.84-1.86,2.79-2.77h0c.47-.46.53-.79.23-1.45-.46-1-.74-1.42-1.34-1.42Z"/>
  <path class="st0" d="M123.47,71.3c-.97.54-1.99,1.19-3.23,2.05-2.26,1.57-3.95,3.53-5.02,5.84-.41.88-.46,1.64-.13,2.14.31.46.97.7,1.86.67.84-.03,1.69-.3,2.96-.78.08-.03.17-.06.26-.09.13-.04.27-.08.33-.13,2.57-2.13,5.08-4.22,7.58-6.37.13-.12.23-.37.33-.61.05-.13.1-.26.16-.39.11-.22.21-.45.31-.68.21-.48.42-.97.71-1.43,1.06-1.66.79-4.57-.53-5.89-.44-.44-.78-.66-1.02-.66-.02,0-.04,0-.05,0-.25.04-.56.39-.91,1.05-.09.17-.15.36-.22.57-.1.3-.2.61-.39.89-.23.34-.45.7-.68,1.08-.64,1.07-1.31,2.17-2.32,2.73Z"/>
  <path class="st0" d="M143.32,76.47c-.26-.14-.44-.23-.59-.23-.17,0-.32.11-.54.39-1.02,1.35-2.43,2.2-3.79,3.02-.74.45-1.5.91-2.18,1.44-.74.58-1.55,1.06-2.33,1.53-.5.3-1.03.61-1.52.94-.26.18-.45.38-.65.59-.16.17-.32.34-.53.51-.41.34-.9.54-1.38.72-.2.08-.4.16-.59.25-.77.37-1.46.92-1.99,1.59-.35.44-.72,1.25-.32,1.69.26.28.77.33,1.56.15,2.54-.59,4.74-1.71,7.06-2.9.49-.25.98-.5,1.48-.75.69-.34,1.39-.67,2.08-1,.91-.42,1.84-.86,2.74-1.33.23-.12.5-.49.52-.62-.27-1.19.2-2.15.65-3.09.29-.6.56-1.16.63-1.77.03-.25.15-.45.26-.62.03-.05.08-.12.1-.17-.03-.03-.11-.08-.26-.15-.14-.06-.28-.14-.41-.21Z"/>
  <path class="st0" d="M131.94,65.86c.7-.01,2.03-.27,2.06-1.14.04-1.18.4-2.31.74-3.41.43-1.38.88-2.8.73-4.37v-.12s.04-.1.04-.1c.06-.12.13-.25.2-.37.14-.25.27-.49.36-.73.23-.62.1-1.67-.31-2.5-.22-.45-.5-.76-.73-.83-.45-.14-.86-.1-1.22.1-.53.31-.95,1-1.16,1.95-.43,1.89-.84,3.4-1.27,4.76-.67,2.11-.77,3.99-.31,5.76.11.41.68.98.88.99Z"/>
  <path class="st0" d="M120.56,86.94c-.24-.08-.47-.15-.68-.23-.1-.04-.36.04-.77.25l-.09.05h-.1c-1.68-.06-3.37.31-4.99.67-1.6.35-3.25.72-4.94.69h-.01c-.53,0-1.36.43-1.74,1.06-.19.33-.21.64-.06.92.21.38.92.75,1.44,1.02.21.11.4.21.56.31.94.57,1.91,1.12,2.88,1.62,1.39.73,2.84,1.33,4.05.81.83-.36,1.78-1.04,2.54-1.59l.15-.11c2.52-1.81,3.53-3.45,3-4.87-.08-.22-.77-.44-1.22-.59Z"/>
  <path class="st0" d="M88.03,24.02c.13.07.36.18.51.1.96-.5,1.53-.16,1.95.09.09.05.17.11.27.15.13.06.26.13.39.19,1.14.57,2.04,1.02,3.13.14.25-.21.55-.08.76.01.07.03.19.08.23.08.15-.01.3-.02.45-.02,1.53,0,2.8.67,4.03,1.33.67.35,1.3.69,1.97.92,1.6.56,2.18,1.37,2.11,3.01-.02.51.16,1.05.35,1.62.06.17.11.34.16.51.13.44.29.89.43,1.32.24.69.49,1.41.66,2.14.38,1.63,1.02,2.89,2,3.95,1.12,1.21,2.54,3.12,1.93,5.81-.11.48-.1,1.09.03,1.75.07.35.59.94,1.16,1.32.4.27.63.3.68.29.4-.28.87-.46,1.32-.64.38-.15.74-.29,1.06-.49.33-.21.6-.5.87-.8.18-.19.36-.39.57-.58,1.24-1.13,2.82-1.97,4.56-2.42,1.05-.28,2.1-.21,3.11-.14.82.05,1.59.11,2.32-.02.01-.12.03-.24.04-.36.03-.28.06-.56.12-.85.13-.69-.25-1.04-.88-1.54-.12-.09-.23-.19-.34-.28-2.84-2.48-4.9-5.09-6.5-8.21-.11-.15-.22-.3-.33-.46-.24-.34-.47-.67-.74-.95-.41-.42-.76-.92-1.1-1.39-.96-1.35-1.79-2.52-3.72-2.31-.3.04-.5-.18-.64-.34-.04-.04-.1-.1-.13-.13-1.13-.21-1.99-.83-2.83-1.42-.37-.26-.71-.5-1.08-.72-.33-.2-.68-.36-1.05-.53-1.02-.48-2.07-.97-2.73-2.15-.07-.09-.48-.22-.81-.2-2.21.11-4.29-.48-6.3-1.05-.58-.17-1.19-.34-1.79-.49-1.76-.44-3.73-.67-5.71-.65-.64,0-1.13.18-1.45.52-.35.36-.52.93-.49,1.64.02.72.74,1.84,1.44,2.25Z"/>
  <path class="st0" d="M123.51,48.45c-.06-.12-.11-.23-.18-.29-.33-.31-2.19-.04-3.18.3-.16.06-.33.14-.5.25-.64.4-1.26,1.11-1.81,1.73-.22.25-.43.49-.63.7-.25.26-.52.51-.78.75-.69.63-1.33,1.23-1.75,2.16-.58,1.29-1.54,2.41-2.55,3.6-.39.46-.8.93-1.2,1.44l-.05.06c-.16.14-.32.29-.48.45-.38.38-.78.77-1.29.97-1.67.67-3.43,4.69-3.42,6.47,0,2.65,1.26,4.94,4.05,7.44.64.64,2.02.34,3.03.12.28-.06.53-.11.75-.15.22-.04.45-.07.61-.17.18-.11.32-.33.48-.59,1.05-1.76,1.92-3.53,2.63-5.04.23-.49.41-1,.6-1.55.35-.99.7-2.01,1.4-2.87.22-.27.44-.53.65-.78.68-.8,1.27-1.49,1.77-2.5l3.44-6.95c.23-.47.47-.96.51-1.45.07-.91-.51-1.71-1.13-2.56-.33-.46-.68-.94-.94-1.45l-.03-.07Z"/>
  <path class="st0" d="M111.74,110.3c-.52-.82-1.15-1.59-1.75-2.33-.53-.65-1.07-1.33-1.56-2.05-.38-.55-.72-.7-.99-.7-.24,0-.43.12-.52.18-.51.34-.75.73-.28,1.56.3.53.44,1.12.58,1.7.09.37.17.72.29,1.05.78,2.09,1.16,4.07,1.17,6.05,0,.75.62,1.4,1.2,1.57.2.06.47.08.62-.14.24-.37.54-.71.83-1.04.73-.83,1.48-1.7,1.51-3.22.09-.86-.33-1.48-.81-2.2-.09-.14-.19-.28-.28-.42Z"/>
  <path class="st0" d="M103.05,100.58c-2.05-1.59-3.99-2.97-5.93-4.2-.61-.39-1.56-.45-2.32-.51-.47-.03-1.13.35-1.49.85-.15.21-.22.42-.17.52.15.35.26.72.36,1.09.33,1.14.61,2.12,2.06,2.32.54.07.96.51,1.44,1.02.21.22.42.44.66.66.3.19.6.4.9.6.67.46,1.37.93,2.1,1.28,1.57.76,2.27.2,2.67-.28.19-.24.34-.99.24-1.91-.09-.79-.32-1.29-.52-1.44Z"/>
  <path class="st0" d="M27.55,104.48c-.2.13-.39.33-.64.61-.15.16-.32.35-.53.56-.39.53-.78,1.05-1.18,1.58-.9,1.19-1.83,2.43-2.65,3.7-.91,1.42-.72,1.85.57,3.2.38.4.73.59,1.02.6.39,0,.8-.38,1.29-.93.22-.25.46-.48.7-.69.29-.28.57-.54.8-.83.67-.85,1.32-1.73,1.95-2.58.46-.61.91-1.23,1.38-1.84.63-.82.56-2.06-.17-2.88q-1.2-1.35-2.54-.49Z"/>
  <path class="st0" d="M90.27,108.24c-.33-.22-.67-.43-1-.64-1.28-.81-2.6-1.64-3.62-2.99-.59-.77-1.93-1.43-2.93-1.43h0c-1.01,0-2.36.66-2.9,1.42-.22.3-.08.52.72,1.16.26.21.53.43.73.67.04.05.17.11.31.17.2.09.46.21.77.41.21.08.43.15.64.22,1.26.41,2.56.84,3.21,2.5q.95,2.41,3.3,2.06l.32-.05c1.15-.17,1.75-.67,1.89-1.57.13-.81-.46-1.27-1.44-1.93Z"/>
  <path class="st0" d="M95.77,116.54c-.5-.7-1.01-1.41-1.6-2.02-.27-.28-1.31-.39-1.61-.18-.35.25-.64,1.19-.51,1.67.15.58.41,1.15.7,1.8.29.63.61,1.35.89,2.21.19.44.41.91.63,1.39.53,1.15,1.07,2.33,1.46,3.55.23.72.43.7.79.61.98-.27,1.21-.47,1.26-.52.08-.46.2-.92.31-1.37.45-1.77.88-3.44-.66-5.03-.63-.65-1.16-1.39-1.67-2.11Z"/>
</svg>