<svg width="118" height="192" viewBox="0 0 118 192" fill="none" xmlns="http://www.w3.org/2000/svg">
<g clip-path="url(#clip0_256_1602)">
<path d="M102.902 74.3363C102.888 73.8618 103.048 73.4499 103.042 72.965C103.029 71.4607 101.911 70.0424 101.741 68.5199C101.196 63.6002 103.034 58.7015 103.154 53.7975C103.274 48.8935 101.444 45.1471 101.207 40.5038C100.73 31.1286 101.979 21.7326 98.7406 12.8319C98.5111 12.2036 98.4381 11.4449 97.8802 10.9808C97.3823 11.2911 97.6169 11.7656 97.5543 12.2166C96.2117 21.5553 98.472 30.5837 97.6873 39.985C96.8191 50.3769 94.6422 60.675 94.6813 71.1452C94.6969 75.6607 96.0161 87.3276 91.1539 89.7679C90.7002 89.9947 90.1345 90.0155 89.6861 90.3857C89.2037 90.7872 89.2507 91.3373 88.8752 91.791C87.9236 92.9433 85.0558 93.0867 83.6714 93.2353C79.5313 93.6785 74.8281 93.6029 70.628 93.5012C66.428 93.3996 62.0871 92.8312 57.861 93.105C55.2591 93.2744 52.8371 94.4815 50.2899 94.9195C45.6675 95.7121 40.4194 95.8841 35.7005 96.3639C29.5607 96.9896 23.3428 97.279 17.3568 98.8771C12.8022 100.092 7.46804 103.429 3.70076 98.9006C-2.02968 92.0126 3.05419 83.8445 3.56519 76.4794C3.96669 70.6786 2.68138 65.1019 3.83633 59.2829C5.06689 53.0883 9.47031 47.4961 9.93959 41.2703C10.4714 34.205 8.4066 27.3248 8.90717 20.2934C9.01667 18.7657 9.60848 16.1977 10.9329 15.28C11.8297 14.6595 13.0316 15.2565 14.0302 15.1131C14.7836 15.0062 15.5684 13.8539 16.9293 13.7157C21.9245 13.2125 23.5383 19.1802 24.0623 23.0048C25.5771 34.0564 26.1741 45.2487 26.9015 56.4046C27.1127 59.6478 30.7496 65.7459 32.5824 68.5824C35.6379 73.317 39.2123 76.9096 42.0436 81.9335C42.9014 83.4534 44.0511 85.3957 44.6742 86.9939C45.8526 90.0103 45.4902 94.578 50.2977 92.5783C50.9547 92.3046 53.4941 91.0975 53.8121 90.6178L57.8975 75.4105C60.6115 69.3594 65.1505 63.9626 67.012 57.5413C69.5148 48.9065 65.8857 38.5511 65.0983 29.6817C64.6838 25.0175 64.4309 19.7407 66.7695 15.5824C68.5606 12.3939 73.0553 6.14462 77.1197 10.0631C79.5131 12.3704 77.9853 18.4554 77.7455 21.4719C77.065 30.0649 80.5924 38.0192 79.9433 46.3516C79.7894 48.3225 78.7935 50.0589 78.6527 51.9699C78.3738 55.6929 79.2133 59.2672 79.4453 62.9198C79.5339 64.3328 79.3775 65.0289 79.1872 66.3221C78.9969 67.6152 81.9429 72.3106 82.639 73.8071C83.5098 75.6842 84.172 77.663 84.7482 79.6496C85.4182 81.9622 85.7545 84.4754 86.5158 86.7462C87.0763 88.42 89.2402 89.3898 90.6585 87.9585C94.1181 84.465 93.1639 71.3799 93.3934 66.4472C93.4194 65.8919 93.6124 65.1828 93.6515 64.6196C94.1051 58.0236 94.3032 51.3494 95.0723 44.7925C95.8962 37.7872 95.6668 31.8716 95.3461 24.8637C95.1141 19.7798 94.7047 13.2229 96.4254 8.34242C97.2441 6.02209 98.8996 6.98933 97.9636 9.06459C99.1473 9.86237 99.786 10.7123 100.388 11.9976C104.234 20.2074 102.297 32.9718 103.167 41.9377C103.475 45.0975 105.144 47.556 105.251 50.8045C105.436 56.3681 102.581 63.0814 103.587 68.3713C103.837 69.6826 106.069 72.5896 105.125 73.7523C104.719 74.2529 103.519 74.3051 102.904 74.3337L102.902 74.3363ZM75.5789 11.4501C75.3573 11.205 75.3704 11.0877 75.0054 10.9156C73.4255 10.1726 72.7815 11.5987 71.3632 11.7708C71.65 13.614 69.9163 14.5943 68.9543 15.817C65.8544 19.7538 66.8425 29.1811 67.4578 33.9782C68.1408 39.3019 69.5461 44.5891 69.6608 49.8972C69.7338 53.263 70.615 54.7048 72.4739 57.3797C73.8609 59.3741 75.7771 61.8665 77.3544 63.7097C77.443 63.814 77.8732 64.312 78.0036 64.1686C77.417 59.8642 76.6348 55.5625 76.8251 51.193C80.2718 41.1243 74.9976 31.1443 75.7875 20.9556C75.8553 20.0718 76.2177 18.87 76.3089 17.9575C76.4836 16.2159 76.7652 12.7563 75.5816 11.4527L75.5789 11.4501ZM19.9405 16.9094C18.8116 15.8483 17.4142 15.5172 15.8812 15.6684C15.425 15.7127 14.987 15.9891 14.8384 16.4532C14.5724 17.2874 15.7117 20.0718 15.9229 21.1173C17.2786 27.841 16.2592 35.1279 17.422 42.0394C18.2041 46.6853 19.5416 52.1159 21.7368 56.2351C22.5189 57.7029 22.4068 58.8162 22.3469 60.4587C22.3077 61.5432 21.8333 62.5861 22.4094 63.6498C24.3595 63.0136 23.4288 59.1577 24.4899 58.1696C24.7219 57.9532 25.2173 57.9011 25.3164 57.5622C25.3685 57.3849 25.4389 56.415 25.4467 56.1543C25.5197 53.5941 25.0869 50.2779 24.8184 47.6838C24.1823 41.5727 23.0065 35.3678 22.3547 29.2906C22.0001 25.9717 22.4511 19.2662 19.9431 16.912L19.9405 16.9094ZM8.71164 52.1003C7.62708 54.2668 6.56859 56.1335 5.95331 58.5346C3.98233 66.2334 6.20359 73.7654 4.71232 81.4094C4.36557 83.1927 3.50262 84.83 3.06202 86.5376C2.15995 90.0338 2.76741 96.7862 6.28963 98.7937C8.95671 100.314 12.7005 98.9162 14.7575 96.927C14.5411 93.2066 13.0394 89.7783 13.9024 86.0397C14.403 83.8758 15.3754 81.7041 16.0455 79.5793C16.3948 78.4738 16.7051 77.3502 16.9814 76.2239C16.8041 75.5121 16.0455 75.1654 15.9516 74.4067C15.7821 73.0224 16.5747 72.5609 16.7285 71.5285C17.0075 69.654 14.8175 66.3168 14.1735 64.4528C12.8543 60.6203 14.1814 57.5856 14.3951 53.8131C14.8488 45.8301 13.6469 37.8732 13.3419 29.958C13.1985 26.2637 13.8398 21.2294 13.0238 17.7619C12.7448 16.5731 12.0905 16.62 11.629 17.6733C9.40774 22.752 11.4856 31.1182 11.7828 36.6009C12.1296 43.0118 11.5247 46.4793 8.71164 52.1029V52.1003ZM16.7337 46.1795H16.3453C16.4078 48.6015 16.1054 51.0027 15.9516 53.3934C15.4823 53.5654 15.8551 53.774 15.8291 54.1912C15.5736 58.0888 14.9687 61.3555 16.4756 65.1463C17.2656 67.1355 18.9524 69.143 18.4284 71.4033L18.6891 71.4685L21.6899 65.214C20.6001 65.5139 18.9863 66.0249 18.723 64.4632C18.4753 62.998 19.9248 62.2002 20.3211 61.04C21.1293 58.6754 19.771 57.2936 19.0306 55.2914C17.9747 52.4366 17.5784 49.1229 16.7337 46.1795ZM22.8605 68.4703C22.6154 68.4182 22.545 68.5929 22.4146 68.7415C21.8437 69.3959 20.9651 70.8689 20.5114 71.6614C19.8571 72.8086 19.0697 74.1982 18.9498 75.5095C19.7606 74.9699 23.1446 68.7832 22.8578 68.4703H22.8605ZM21.583 75.1419L17.568 84.3711C17.5237 84.8978 18.8872 85.5391 18.6865 86.6445C18.6447 86.8713 18.0999 87.4058 18.4961 87.4997C19.1688 87.6587 18.9029 86.5376 18.9602 86.1414C18.9967 85.8885 19.1401 85.6773 19.1792 85.4479C19.4947 83.6151 20.1021 78.6485 22.3025 78.1427C22.5815 78.0776 23.3037 78.2131 23.3819 77.9133C23.2281 77.3476 22.6154 74.5449 21.5804 75.1393L21.583 75.1419ZM63.3542 87.5857C63.5523 87.2442 64.1467 85.268 63.4715 85.4166C63.1378 85.878 60.9217 87.3015 60.9217 87.7004C60.9217 88.2636 62.3296 88.4174 62.8067 88.141C62.8432 88.1202 63.3359 87.6196 63.3568 87.5857H63.3542ZM74.3171 90.9254C74.1841 90.8107 73.3186 90.5396 73.1022 90.5109C71.8899 90.344 70.7506 90.5031 69.5982 90.5057C67.9531 90.5083 66.3054 90.4979 64.6603 90.4952C64.4361 90.55 64.4335 91.2331 64.6603 91.2904C65.5859 91.3243 66.6418 90.9593 67.5073 90.8941C69.8746 90.7116 72.1428 91.5433 74.4813 91.2826C74.497 91.2696 74.351 90.9567 74.3145 90.928L74.3171 90.9254ZM37.9843 93.629C36.1646 94.2286 34.4621 93.8063 32.6424 94.4789C32.439 94.5545 31.9593 94.737 31.8602 94.9326C32.9526 95.2741 34.0867 94.9299 35.1843 94.8048C36.0107 94.711 36.7851 94.6875 37.6324 94.5102C38.1981 94.3929 38.0417 94.08 37.9843 93.6316V93.629ZM24.8158 95.0629C22.3938 94.6797 19.9874 95.0473 17.6045 95.4748C17.2552 95.5791 17.2604 96.0927 17.8026 96.0771C18.9237 96.0458 19.9613 95.6365 21.085 95.6964L24.8158 95.0629Z" fill="#EE4122"/>
<path d="M111.68 97.454C111.589 97.54 111.549 97.7017 111.44 97.7955C110.173 98.8827 108.481 99.4589 107.07 100.34C106.562 101.099 107.597 101.161 108.053 101.445C114.31 105.377 113.45 117.432 113.069 123.807C112.652 130.83 111.539 137.929 113.103 144.888C114.097 149.307 115.731 153.58 116.659 158.017C116.808 158.724 117.225 160.486 117.22 161.088C117.204 162.629 115.364 162.606 114.498 161.712C114.475 160.674 114.892 159.48 114.905 158.481C114.926 156.641 114.016 153.497 113.531 151.63C112.397 147.258 110.713 142.977 110.457 138.409C110.225 134.264 111.224 129.782 111.505 125.626C111.87 120.198 111.948 108.107 108.431 103.805C108.21 103.534 107.561 102.812 107.266 102.754C106.575 102.619 106.317 102.934 105.827 103.005C105.472 103.054 104.435 102.866 104.349 103.218C104.323 103.32 104.698 104.918 104.727 105.296C105.128 110.977 103.564 117.86 103.295 123.676C102.954 131.041 104.463 136.848 104.987 143.882C105.457 150.196 103.016 155.9 103.426 161.738C103.54 163.375 104.153 164.673 104.562 166.206C105.214 168.657 105.835 171.134 106.588 173.566C106.904 174.153 108.411 174.064 108.869 175.196C109.597 176.992 108.027 177.138 106.627 176.916C105.501 176.739 105.637 175.365 105.339 174.554C103.697 170.075 102.336 168.021 102.117 162.916C101.713 153.528 102.182 144.158 101.731 134.754C101.439 128.648 101.556 123.126 101.739 117.031C101.757 116.442 101.781 115.829 101.601 115.266L100.302 117.941C99.5176 118.744 98.5113 119.534 97.4945 118.525C97.1139 118.147 97.08 117.599 96.8323 117.232C95.7243 115.592 96.0319 118.937 95.9824 119.487C95.8208 121.333 95.182 123.546 94.83 125.374C93.0989 134.386 91.214 143.483 89.183 152.446C88.1871 156.836 86.3413 161.897 86.735 166.433C86.8836 168.154 88.1845 170.075 86.2579 171.29C84.5971 172.336 81.1375 172.701 79.1456 173.042C76.5724 173.483 73.1519 174.241 70.5265 173.91C68.3131 173.629 69.515 171.861 68.5608 170.662C68.3365 170.38 67.9872 170.229 67.7864 170.002C65.8754 167.815 65.6486 161.719 65.0698 158.771C64.3763 155.241 62.932 152.347 61.7823 149.023C59.8765 143.514 59.7096 137.796 58.0228 132.186C55.8406 124.925 51.3512 114.859 46.9556 108.709C46.5254 108.107 45.4774 106.597 44.9872 106.183C44.8803 106.094 44.7004 106.008 44.5675 106.018C44.02 106.06 42.3879 108.871 42.2967 109.475C41.8847 112.205 42.9015 115.115 43.0684 117.813C43.2978 121.552 41.8196 125.095 41.8926 129.157C41.9812 134.058 42.5548 138.993 42.8103 143.882C43.0762 149.018 42.865 154.26 43.3447 159.381C43.4021 159.98 43.6837 160.267 43.5846 161.075C43.4568 162.103 43.1153 162.457 42.0959 162.462C41.0765 162.468 40.3231 162.384 40.4769 161.227C41.5589 153.085 40.7376 144.883 40.4613 136.715C40.3857 134.514 40.8758 128.247 40.1041 126.643C39.8356 126.085 39.3011 126.098 39.0482 125.744C38.6597 125.199 38.983 124.38 38.3156 124C37.8437 125.778 37.9689 127.819 38.1227 129.668C38.4668 133.795 39.5123 137.922 39.6922 142.046C39.9685 148.441 37.862 155.28 38.6519 161.597C38.738 162.293 39.0691 163.268 39.1525 163.964C39.8903 170.013 36.6992 176.332 39.202 182.164C39.3663 182.55 39.9529 183.28 39.9581 183.632C39.9685 184.693 38.0966 185.874 37.145 184.873C36.4385 184.13 37.1268 183.129 37.2076 182.201C37.4109 179.886 36.5089 177.62 36.5506 175.42C36.5871 173.509 37.3562 171.29 37.4761 169.303C37.7838 164.209 36.8452 158.677 36.9443 153.52C36.9964 150.814 37.5621 148.105 37.7316 145.443C38.1461 138.946 36.8035 132.134 36.561 125.629C36.3446 119.81 36.986 113.85 38.2244 108.263C38.399 107.478 38.5033 105.932 38.9022 105.291C39.0456 105.062 40.795 103.708 41.0974 103.575C42.4244 102.986 43.1336 103.729 44.4397 103.529C45.6286 103.343 47.0286 102.102 48.2591 101.873C48.9944 101.735 49.8599 101.698 50.3083 102.371C51.0175 103.435 50.2197 104.303 49.2733 104.843C49.0074 104.994 46.6584 105.81 46.9921 106.274L48.8953 107.502C55.9788 112.893 65.7164 119.093 75.0811 118.4C82.7513 117.831 91.5555 111.551 94.5016 104.449C95.633 101.722 95.4714 98.9687 98.394 97.3914C101.126 95.9184 102.417 97.1203 105.128 97.5452C105.287 94.2394 108.022 91.2152 111.456 91.2803C112.355 91.296 113.309 91.4081 113.719 92.2789C114.691 94.3489 113.114 96.1244 111.693 97.4592L111.68 97.454ZM110.848 96.1009C110.947 95.7098 110.462 95.3396 110.491 95.0189C110.52 94.6644 111.158 94.2081 110.924 93.8822L108.637 93.4964C108.875 94.4167 108.048 94.6174 107.665 95.1962C107.454 95.5169 106.63 98.2778 106.69 98.4994C106.76 98.7628 107 98.7184 107.198 98.6428C107.667 98.4655 108.948 97.1646 109.506 96.7787C109.917 96.492 110.34 96.1765 110.848 96.1009ZM102.594 99.5814C103.392 98.8175 102.091 98.3769 101.4 98.3248C100.404 98.2492 99.2621 98.6089 98.4644 99.2034L94.0636 110.414L94.2304 110.836C97.0774 108.219 97.372 102.634 100.667 100.59C101.181 100.272 102.224 99.9386 102.594 99.584V99.5814ZM102.769 102.102C101.854 101.954 101.371 102.799 100.915 103.443C99.7184 105.137 98.3836 108.06 98.2063 110.119C98.1281 111.042 98.2584 112.056 98.2115 112.992C98.1854 113.48 97.8126 116.572 97.9456 116.702L99.1344 116.627L102.769 102.102ZM38.897 114.486L39.2568 114.259C39.4888 112.382 41.1313 110.104 39.8721 108.36L39.4784 109.264C39.0925 110.99 38.764 112.7 38.897 114.484V114.486ZM92.2099 114.747L91.811 114.828C90.7265 118.05 89.9547 121.419 89.243 124.748C87.6709 132.097 85.6165 142.291 85.9424 149.732C85.9606 150.131 85.5487 150.61 86.151 150.981C86.3752 150.983 86.7975 147.886 86.8497 147.511C87.6448 141.712 87.929 135.862 88.9901 130.098C89.7279 126.085 90.8386 122.128 91.6598 118.168C91.8918 117.044 92.0821 115.884 92.2125 114.744L92.2099 114.747ZM84.1304 117.615C83.5829 117.565 83.0563 117.756 82.5401 117.912C80.6213 118.501 78.4261 119.685 76.476 120.06C73.6707 120.597 69.6818 120.011 66.9548 119.213C65.4322 118.767 63.9279 117.873 62.361 117.81C64.0452 118.6 65.9067 120.06 67.6795 120.576C73.3735 122.237 78.2045 121.142 83.2336 118.475C83.6794 118.238 84.266 118.423 84.1331 117.615H84.1304ZM93.3831 124.002L92.6635 124.13C92.3585 125.149 92.0926 126.195 91.8527 127.23C90.9168 131.297 89.9 136.25 89.4907 140.38C89.4411 140.881 89.3525 141.371 89.4724 141.861C89.9834 141.626 90.0903 140.969 90.2181 140.456C91.0132 137.236 91.3469 133.638 91.9779 130.353C92.3872 128.226 92.9034 126.111 93.3805 124.002H93.3831ZM74.0904 136.516C74.0852 136.284 74.1217 136.039 74.0826 135.807C73.7984 134.094 70.1302 132.535 68.6155 132.084C68.4069 132.256 71.2878 134.863 71.5511 135.077C71.8796 135.343 73.7619 136.845 74.0878 136.514L74.0904 136.516ZM68.0211 137.635C67.9116 137.525 66.9548 136.48 66.7931 136.647C67.033 137.922 67.7708 139.03 68.5503 140.036C68.6755 140.195 69.5358 141.165 69.6636 141.246C69.8043 141.332 69.8565 141.381 70.0494 141.34C70.0911 139.874 69.0014 138.61 68.0185 137.635H68.0211ZM68.0133 147.417C67.9481 147.315 67.9663 147.187 67.9663 147.075L67.7108 147.271C68.1775 148.423 68.4069 149.641 68.8788 150.793C69.0483 151.21 69.7235 152.704 69.9947 152.936C70.1589 153.077 70.2163 153.105 70.4457 153.072C70.5109 153.006 70.1824 151.609 70.1068 151.39C69.7313 150.313 68.6259 148.384 68.0159 147.417H68.0133Z" fill="#EE4122"/>
</g>
<defs>
<clipPath id="clip0_256_1602">
<rect width="116.22" height="178.256" fill="white" transform="translate(1 7)"/>
</clipPath>
</defs>
</svg>
