<svg width="108" height="192" viewBox="0 0 108 192" fill="none" xmlns="http://www.w3.org/2000/svg">
<g clip-path="url(#clip0_256_1628)">
<path d="M94.3805 38.1866C94.9271 38.7463 93.5244 39.5914 93.1117 39.7692C90.6202 40.8405 88.2451 40.0722 85.7932 40.0239C83.7912 39.9844 81.3656 40.4848 79.3219 40.577C76.7844 40.6912 74.429 40.6034 71.8519 40.79C56.2797 41.9292 40.6066 42.4253 24.9883 43.097C23.3156 43.1695 21.6166 43.378 19.9439 43.4307C16.7039 43.5295 13.2202 43.2814 10.0636 43.648C9.51267 43.7117 7.4734 43.8061 7.86633 44.6336C8.63242 45.6149 9.53681 46.5017 10.2283 47.5422C10.968 48.6551 11.4093 49.937 12.1117 51.0368C12.5595 51.7349 13.1807 52.3341 13.589 53.0717C15.198 53.0651 16.7939 52.951 18.4051 52.9751C21.329 53.0168 24.2683 53.3439 27.1812 53.5283C34.1507 53.9673 41.0632 54.3317 48.0283 53.9629C48.5551 53.9344 49.521 53.897 50.0127 53.9629C50.5044 54.0288 50.5724 54.2044 50.2805 54.5709C48.711 56.54 43.3571 56.6717 41.0017 56.8166C36.0034 57.1261 30.9788 57.0931 25.9717 57.2622C25.3351 57.2841 24.5251 57.4663 23.8907 57.4861C21.8163 57.5475 19.0197 57.2205 17.0771 57.4773C16.0432 57.6134 16.9871 59.0512 17.3097 59.5583C18.6202 61.6151 21.1666 63.8058 22.8371 65.6914C28.7288 72.3427 34.5678 79.1519 40.3497 85.9085C40.5297 86.1171 41.2015 87.1356 41.2783 87.1751C42.0949 87.6031 41.5834 85.408 41.4451 85.0327C41.0302 83.9022 38.7693 82.0166 38.8658 81.0375C38.901 80.6753 39.779 79.3846 40.0754 79.1629C40.341 78.9653 42.1212 78.5175 42.4241 78.5592C42.8171 78.6119 44.8673 79.5075 45.3063 79.7446C46.9263 80.6161 48.2434 82.2778 49.791 83.1624C50.2651 83.4346 50.7897 83.5246 51.2134 83.8253C51.9817 84.3719 53.1473 85.8931 53.7268 86.69C54.4424 87.6734 55.101 88.7534 55.6717 89.8049C55.7002 90.2658 54.2844 93.1283 53.9002 93.3127C53.0968 93.4949 52.2715 93.7429 51.4307 93.7056C50.8183 93.6771 48.2983 92.7156 48.0854 92.8714C48.0107 92.9263 47.9778 93.0119 47.9734 93.1019L50.1422 100.925C51.1344 105.342 49.769 109.783 49.5166 114.175C49.2751 118.394 49.9249 122.519 50.1729 126.687C50.5241 132.599 50.0215 138.668 50.5044 144.575C50.7041 147.027 51.2639 149.585 51.3802 152.041C51.4966 154.497 51.051 157.23 50.9368 159.717C50.7129 164.619 51.5602 168.234 47.4312 171.797C46.2085 172.853 44.7202 173.378 43.4515 174.269C42.468 174.958 41.871 176.119 40.4551 175.917C40.2027 175.882 40.0183 175.663 39.8295 175.707C39.4936 175.788 38.5739 176.558 38.1415 176.776C36.2712 177.722 33.9597 177.691 31.9139 178.011C27.7278 178.668 23.5571 179.509 19.3314 179.862L19.3402 180.18C20.3302 180.63 21.4234 180.27 22.4617 180.191C31.8656 179.476 41.4341 179.072 50.8819 178.758C56.2227 178.58 61.7149 178.859 67.0205 178.543C67.5978 178.508 68.2454 178.33 68.8337 178.323C69.2441 177.926 67.2751 177.129 67.398 176.413C69.4 175.136 72.1944 176.084 74.0866 177.186C74.969 177.702 75.1798 178.207 75.8317 178.764C76.2729 179.142 77.039 179.247 77.0698 179.917C77.0983 180.542 76.7098 180.944 76.1939 181.238C75.1227 181.849 72.2141 182.643 70.9212 182.99C62.661 185.209 53.8958 185.293 45.4029 185.789C38.429 186.195 29.6332 187.323 22.8217 185.758C21.9524 185.558 21.138 185.082 20.2271 185.115C19.7617 184.175 21.3795 184.175 22.0183 184.136C24.2683 184.002 26.7115 184.314 28.9417 184.145C29.1371 184.129 29.2973 184.175 29.429 183.976C28.6893 183.39 27.5939 183.585 26.7444 183.48C24.5997 183.218 20.2841 182.893 18.6202 181.616C17.9134 181.074 17.1341 179.917 18.1329 179.263C19.1317 178.609 22.5451 178.51 23.8578 178.292C28.5071 177.518 34.5546 175.575 38.7254 173.404C41.5329 171.944 42.861 171.321 44.1012 168.243C45.6751 164.338 46.8451 159.623 47.6244 155.522C47.7671 153.953 48.2215 152.403 48.3071 150.827C48.4146 148.838 47.9515 146.843 47.9734 144.786C48.0678 135.889 48.88 126.182 48.0876 117.354C47.7078 113.117 45.6005 109.603 44.3888 105.577C43.0124 101 42.231 95.9095 40.4595 91.5061C39.0129 87.9149 36.2251 84.5871 33.8171 81.5753C29.5497 76.2324 25.1397 70.9092 20.7561 65.6607C19.8561 64.5829 18.2032 63.481 18.2361 61.9795C17.9178 61.9466 17.3405 62.098 17.1275 61.8258C17.0222 61.6897 17.0529 61.4658 16.9651 61.3297C16.8817 61.2002 16.5458 61.04 16.3724 60.8249C14.759 58.8405 12.9963 56.4522 11.5607 54.3317C11.2534 53.8773 10.8188 52.8763 10.5554 52.5931C10.2919 52.31 9.7234 52.2266 9.56315 52.0488C9.42267 51.8907 9.48633 51.6558 9.34584 51.4978C9.2273 51.3639 8.66535 51.1444 8.40852 50.8985C7.46242 49.9941 6.57559 48.3873 5.7195 47.3292C3.80096 44.9475 1.18876 42.9214 0.809007 39.609C0.756324 39.1436 0.927544 39.0931 1.38193 39.1502C1.83632 39.2073 3.55291 40.1117 3.9634 40.4146C5.2234 41.3497 4.91389 41.8019 6.84998 41.42C9.03852 40.9875 10.9417 40.3883 13.2488 40.1358C20.3368 39.3588 27.8375 39.2534 34.9783 39.0361C51.6722 38.5268 68.4298 38.2722 85.1434 37.7256C87.22 37.6575 89.2681 37.3568 91.3929 37.5039C91.9242 37.5412 94.0732 37.8727 94.3827 38.1888L94.3805 38.1866Z" fill="#EE4122"/>
<path d="M92.8257 48.756C90.3957 51.7084 87.8208 54.5555 85.4106 57.5299C80.8074 63.2153 76.5006 69.1465 71.904 74.8384C70.7933 76.2126 69.6233 77.7996 68.4533 79.0948C68.2843 79.2813 67.2372 80.3657 67.1318 80.4096C66.6335 80.6182 67.1955 79.5623 67.1889 79.4789L66.9694 79.424C66.8289 79.7796 66.2121 80.1418 65.8543 80.3394C62.6252 82.1284 54.905 82.6114 51.4938 81.2306C45.0862 78.636 43.7077 72.0572 46.3155 66.0667C47.1979 64.0384 50.2272 59.9796 52.5452 59.6745C53.8403 59.5033 55.6864 59.7843 55.884 61.3121L55.1113 61.3648C54.7601 61.9289 55.8818 61.7182 56.2418 61.7774C57.5808 62.0013 57.2296 62.7192 57.5633 63.6389C57.7367 64.1196 58.2086 64.5543 58.2899 65.1074C58.4282 66.0535 58.055 66.4201 57.9694 67.1818C57.8969 67.836 57.8684 69.4274 58.3074 69.9192C58.5313 70.1694 59.6179 70.8433 59.945 70.9179C60.6847 71.0848 62.5286 70.4372 63.0774 69.8774C63.3562 69.5921 64.1816 68.0643 64.2847 67.6823C64.4406 67.1072 63.9094 66.1304 64.693 65.7857C65.4767 65.4411 65.7664 66.4245 66.2603 66.4684C66.5106 66.4904 66.7784 66.2994 67.0243 66.3038C67.5182 66.3104 68.1569 66.8109 68.7672 66.497L68.8923 66.5694C69.7484 67.5857 70.1238 68.8962 70.4882 70.1474C70.1216 71.4096 69.6123 72.5665 69.0504 73.7431C69.0174 73.8111 68.866 73.8045 68.8374 73.9033C68.7408 74.2633 68.5169 75.3192 68.5125 75.6506C68.5125 75.8372 68.4928 75.8987 68.6684 76.0194C69.744 74.7726 70.993 73.4752 71.8426 72.0616C72.7491 70.5513 73.2584 68.826 74.0816 67.2762C75.5545 64.5104 77.8001 62.2845 79.6945 59.8282C83.6765 54.6652 87.5596 48.9052 91.9345 44.0804C93.6972 42.1355 95.6662 40.2301 98.2125 39.3784L98.4496 39.5211C97.7516 43.1826 95.1065 45.9791 92.8235 48.7538L92.8257 48.756Z" fill="#EE4122"/>
<path d="M65.3239 82.4971C65.4753 83.0963 64.92 83.2193 64.56 83.6539C62.7227 85.8688 58.1151 91.8417 57.7617 94.5263C57.6673 95.2398 57.8056 96.0849 57.7507 96.8202C57.4083 101.434 55.3053 105.847 54.6929 110.445C54.3461 113.038 54.4163 115.619 54.3549 118.229C54.2166 124.222 54.0453 130.234 53.9158 136.229C53.8544 139.129 54.0146 141.473 54.2429 144.345C54.5327 148.013 54.1727 151.457 54.4624 155.101C54.8378 159.803 56.4731 167.457 59.3531 171.281C59.8888 171.992 62.5624 174.359 62.6524 174.969C62.6985 175.294 61.5461 175.763 61.2629 175.842C57.6849 176.854 55.8256 173.388 54.5524 170.704C52.061 165.455 52.3836 160.027 52.151 154.337C51.8766 147.629 51.9336 141.173 52.0412 134.462C52.1795 125.892 52.6207 117.34 52.8095 108.779C52.8556 106.681 52.7436 105.445 52.5966 103.403C52.2695 98.8529 56.629 90.4566 59.5639 86.9949C60.3871 86.0224 62.3144 83.8098 63.2407 83.0985C63.8444 82.6332 64.6258 82.6617 65.3283 82.4971H65.3239Z" fill="#EE4122"/>
<path d="M106.772 6.36617C107.195 6.8908 106.943 7.14543 106.686 7.68543C105.332 10.5281 102.313 14.1523 100.333 16.6986C96.5074 21.6201 92.4288 26.9235 88.3196 31.5749C86.3374 33.8184 84.1686 36.3603 81.2403 37.2823C80.9176 35.3703 81.8022 33.7635 82.8427 32.2445C88.2866 24.3047 96.0749 16.9906 102.309 9.56446C103.064 8.66446 103.685 7.59104 104.504 6.7108C104.724 6.47592 105.42 5.7208 105.663 5.67251C106.438 5.51885 106.227 5.88543 106.482 6.1708C106.565 6.263 106.715 6.29373 106.774 6.36836L106.772 6.36617Z" fill="#EE4122"/>
<path d="M78.0549 181.609V182.046C76.8257 182.059 76.0662 183.196 74.703 183.04C74.2442 182.988 74.1323 182.663 74.591 182.478L78.0549 181.607V181.609Z" fill="#EE4122"/>
<path d="M64.8845 42.6578L63.8967 44.4117L65.6023 44.2229L65.7472 44.3744C65.7319 45.3929 66.1072 46.2973 66.2016 47.3246C66.274 48.1171 66.1489 50.4856 66.5397 51.0476C66.9304 51.6095 68.298 50.8237 68.7414 50.5207C71.2745 48.7976 69.8389 47.981 68.5921 46.1393C68.2979 45.7068 67.4814 44.7059 67.7931 44.1944C67.8721 44.0649 68.827 43.4107 69.0223 43.3405C70.0321 42.9695 70.3065 43.5468 71.1626 43.7883C71.7531 43.9551 72.8923 44.1132 73.5048 44.089C74.8614 44.0363 76.286 43.2724 76.9819 45.1032C77.5833 46.6815 76.4462 47.3795 76.4023 48.6439C76.3804 49.2871 76.8655 49.1927 77.0433 49.5417C77.5153 50.4659 76.7162 51.671 76.5341 52.582C76.6043 52.8585 77.5109 52.8585 77.7919 52.9661C78.6611 53.2976 78.8872 54.2656 79.1023 55.0646L79.2033 55.1393C79.638 54.9724 79.6489 55.0361 79.8772 55.3785L80.2504 55.2732V54.9483L79.9189 54.8781C79.6972 53.9517 80.3931 53.1571 80.3711 52.2571C80.3097 49.6756 79.1023 47.4937 79.2626 44.7915C79.2867 44.3788 79.4514 43.9705 79.3767 43.5337C79.7411 43.1473 81.9648 45.4478 82.2282 45.7859C83.9294 47.981 83.1589 52.1144 81.7716 54.3249C81.4423 54.8495 79.6928 56.8976 79.1901 57.0117C78.8762 57.082 78.5097 56.9283 78.2704 57.1895C77.0214 58.6471 76.016 60.9651 74.7165 62.3064C73.6189 63.4412 71.494 64.8176 69.8653 64.4049C68.928 64.1656 69.2682 63.4061 68.737 63.2283C68.2804 63.0768 67.5406 63.2305 67.0314 63.1778C65.3784 63.0066 62.887 62.4381 61.4316 61.6434C58.6701 60.1376 55.8011 56.2281 55.665 53.032C55.485 48.78 60.3318 42.5503 64.8889 42.6556L64.8845 42.6578ZM74.7297 46.1349C74.7933 46.0844 74.9821 45.7639 74.9711 45.6893C74.8372 45.1493 73.1162 45.1954 73.1184 45.4566C73.4192 45.9615 74.1326 46.6178 74.7297 46.1371V46.1349Z" fill="#EE4122"/>
</g>
<defs>
<clipPath id="clip0_256_1628">
<rect width="106.2" height="180.92" fill="white" transform="translate(0.799805 5.63525)"/>
</clipPath>
</defs>
</svg>
