<svg width="167" height="192" viewBox="0 0 167 192" fill="none" xmlns="http://www.w3.org/2000/svg">
<g clip-path="url(#clip0_256_1663)">
<path d="M120.213 47.4402C121.719 48.8567 123.264 50.2316 124.763 51.656C125.645 52.492 127.262 54.4671 128.127 55.0277C129.11 55.6637 131.521 55.0693 132.636 54.7801C135.053 54.1541 138.237 52.8644 140.253 51.4024C144.128 48.5932 147.288 44.7579 152.506 44.2408C157.724 43.7237 159.21 46.8637 160.54 51.341C160.819 52.282 161.15 52.7753 160.686 53.7064C159.999 55.0891 157.55 57.3753 156.361 58.4966C153.117 61.5554 149.295 64.2932 145.505 66.6566C144.327 67.3916 141.309 68.6515 140.885 69.961C140.691 70.5613 140.885 71.9976 140.969 72.6949C142.131 82.4814 146.492 92.1787 146.906 101.922C147.33 111.924 140.139 116.98 132.767 122.065C123.448 128.496 113.543 134.934 103.744 140.588C92.1986 147.25 75.837 155.722 62.3617 156.163C62.0844 156.173 61.2781 156.035 61.0007 155.937C59.8121 155.527 61.0067 155.04 61.3177 154.721C61.6842 154.345 62.9719 151.94 63.0769 151.431C63.1145 151.248 63.1145 151.062 63.1046 150.876C63.0828 150.791 62.7995 150.696 62.7045 150.664C61.7892 150.349 58.043 150.06 57.6507 149.673C57.4784 149.503 57.5358 149.144 57.6091 148.93C57.829 148.295 59.4852 147.094 59.9349 146.306C60.1687 145.895 60.3113 145.517 60.2123 145.03C60.0102 144.439 57.0128 144.114 56.3393 143.752C55.8321 143.481 56.1689 142.751 56.3215 142.292C58.0014 137.24 65.6622 130.249 69.7373 126.685C75.5438 121.611 81.9109 116.643 88.3752 112.437C91.8341 110.187 95.4278 108.132 98.754 105.68C99.279 105.293 101.609 103.562 101.714 103.09C101.959 101.999 100.608 102.393 99.9684 102.536C97.2107 103.148 93.4863 104.622 90.7445 105.595C64.8064 114.791 41.2198 129.593 18.8614 145.345L18.2334 145.559C18.2037 145.386 18.2552 145.25 18.3107 145.091C18.6158 144.2 19.4181 142.884 19.8995 142.024C24.9373 133.042 32.9607 124.864 40.6175 118.069C44.5182 114.608 48.7756 111.599 52.603 108.067C52.4306 107.815 52.0503 107.996 51.7927 108.047C48.7756 108.633 45.6475 109.666 42.6243 110.369C29.8583 113.341 15.6996 115.625 3.1119 110.71C2.69588 110.547 1.40819 110.058 1.14272 109.806C0.940653 109.614 0.984236 109.452 1.12291 109.232C12.7934 106.965 24.6204 105.2 35.9858 101.65C48.0406 97.8862 60.977 92.6066 72.3206 87.0715C77.2633 84.6606 83.6879 81.4909 88.0582 78.2439C88.5752 77.8596 89.7857 77.1167 89.3142 76.4114C88.9774 76.1519 87.3292 76.7006 86.8577 76.8453C82.432 78.2142 78.0934 80.6152 73.6994 82.21C67.1024 84.6051 59.7646 86.6515 52.9041 88.1591C47.3135 89.3874 38.0738 91.3744 32.5942 89.9441C32.3267 89.8747 32.0078 89.851 31.879 89.5697C31.3144 88.3454 33.4381 86.0592 32.8913 84.6447C32.6437 84.3971 29.8603 85.3757 29.2799 85.4312C25.7793 85.772 26.1636 84.3218 27.804 82.0733C28.3943 81.263 29.1134 80.53 29.7791 79.7832C29.8861 79.0284 29.2224 78.8838 28.5865 78.8858C27.0432 78.8897 25.4584 79.4107 23.9409 78.7867C22.5997 78.236 22.9781 76.4708 23.3981 75.3911C25.0324 71.2032 31.8295 66.2089 35.5777 63.7979C42.7293 59.1979 50.7012 55.7092 58.5006 52.3493C66.5022 48.9023 74.682 45.3185 82.7925 42.1706C88.8031 39.8369 98.3796 36.1521 104.757 36.7979C111.134 37.4438 115.783 43.2661 120.219 47.4363L120.213 47.4402ZM100.543 42.2498C91.7806 43.7673 83.1451 46.3229 74.7929 49.3361C61.3375 54.1897 48.3358 60.4876 36.6613 68.7546L36.1581 69.2914C37.4656 68.8199 38.4641 67.8017 39.6111 67.0508C57.9261 55.0614 78.4758 49.0647 99.2116 42.753C99.6732 42.6124 100.295 42.6599 100.543 42.2538V42.2498ZM155.008 48.1059C154.854 47.8681 152.318 47.4482 152.265 48.2743L153.313 49.4451L152.843 50.8655C153.015 51.028 154.163 50.0097 154.327 49.8235C154.612 49.5005 155.274 48.514 155.008 48.1059ZM148.871 49.8849C148.554 49.4272 147.379 50.9368 147.302 51.4162C147.122 52.5474 147.995 52.7138 148.934 52.6524C149.18 52.6366 150.818 52.1591 150.914 52.0561C150.979 51.9868 150.971 51.9432 150.961 51.856C149.695 51.8957 148.8 51.2102 148.873 49.8849H148.871ZM41.3089 75.0346C43.7991 73.9034 46.1467 72.4671 48.6191 71.3022C64.0496 64.0277 81.8931 61.2067 97.6367 54.3502C98.0566 54.166 100.43 53.1992 100.44 52.8961C100.097 52.593 99.3641 52.8743 98.9362 52.9753C92.9772 54.3641 86.6873 57.2822 80.9244 59.4297C74.3512 61.8783 67.7542 63.79 61.0978 65.9514C58.982 66.6388 56.7731 67.5521 54.6514 67.9978C54.5603 68.0176 54.5543 68.2038 54.4157 68.2791C52.9833 69.0458 50.7725 69.6678 49.1837 70.379C46.7331 71.4766 43.8625 72.8811 41.7586 74.5432C41.6081 74.6621 41.2812 74.8305 41.3109 75.0346H41.3089ZM94.2035 66.613C94.15 66.4248 94.0707 66.4308 93.9043 66.4545C93.6587 66.4902 93.0683 66.7259 92.7751 66.8191C86.3584 68.8497 79.4108 70.9773 73.1407 73.3407C72.9961 73.3962 72.8535 73.2476 72.907 73.5468C73.6459 73.5012 75.1555 72.7959 75.7756 73.204C76.0569 73.3903 76.1143 73.832 76.4709 73.8439C76.4947 73.2972 76.0826 72.7761 76.78 72.5186L94.2015 66.613H94.2035ZM64.3884 76.3242C63.7227 76.3698 63.0333 76.6432 62.3875 76.8472C56.6325 78.6599 50.6358 80.5835 44.9541 82.5923C44.7203 82.6755 44.443 82.7528 44.229 82.8618C44.0725 82.941 43.9299 82.9291 43.9853 83.1569C46.846 82.8954 49.6908 81.9505 52.3989 81.0233C56.1352 79.7436 60.0597 78.1924 63.7207 76.6947C63.9367 76.6055 64.2774 76.5402 64.3903 76.3242H64.3884ZM115.104 98.9064L101.741 108.079C91.9866 115.654 82.2933 123.531 73.6954 132.434C73.0239 133.129 71.9739 134.104 71.4251 134.815C71.2805 135.002 71.0983 135.198 71.126 135.457C73.9213 133.238 76.3184 130.578 78.8977 128.125C85.465 121.885 92.1768 115.75 99.5226 110.416C104.356 106.906 109.624 103.79 114.161 99.895C114.292 99.7821 115.223 99.0293 115.104 98.9084V98.9064ZM127.386 105.048L75.0861 141.696L78.2876 139.697C90.903 131.356 103.247 122.626 115.607 113.919C119.426 111.229 123.002 108.941 126.548 105.842C126.655 105.747 127.573 105.234 127.388 105.048H127.386ZM136.598 111.288C136.521 111.213 136.204 111.48 136.113 111.546C131.513 114.852 127.119 118.428 122.465 121.671C109.085 130.994 94.6611 139.324 80.3043 147.064C78.872 147.837 77.3664 148.701 75.9162 149.412C75.7756 149.481 74.686 149.721 74.9871 150.018C75.0921 150.121 76.673 149.364 76.9365 149.243C87.6065 144.394 97.9576 138.074 107.865 131.834C115.688 126.905 123.745 121.752 131.041 116.082C132.789 114.725 134.821 113.162 136.39 111.625C136.495 111.522 136.642 111.482 136.596 111.288H136.598Z" fill="#EE4122"/>
<path d="M166.313 45.3184C166.527 46.1881 165.765 46.5249 165.156 46.9845C164.816 47.242 164.457 47.5094 164.134 47.7412C163.873 47.9275 161.517 49.1319 162.248 49.6312C163.411 49.7619 164.526 48.6783 165.721 49.0824L165.672 49.3776L161.759 52.6959L161.462 52.7454C161.357 51.5924 159.643 48.1533 160.123 47.1964C160.279 47.0181 160.552 46.929 160.77 46.8537C162.522 46.2455 164.538 45.9087 166.315 45.3164L166.313 45.3184Z" fill="#EE4122"/>
</g>
<defs>
<clipPath id="clip0_256_1663">
<rect width="165.35" height="119.437" fill="white" transform="translate(1 36.7266)"/>
</clipPath>
</defs>
</svg>
